<?xml version="1.0" encoding="UTF-8"?>
<svg version="1.1" xmlns="http://www.w3.org/2000/svg" width="960" height="135">
<path d="M0 0 C316.8 0 633.6 0 960 0 C960 44.55 960 89.1 960 135 C643.2 135 326.4 135 0 135 C0 90.45 0 45.9 0 0 Z " fill="#FEFEFE" transform="translate(0,0)"/>
<path d="M0 0 C0 0.66 0 1.32 0 2 C2.97 2.33 5.94 2.66 9 3 C9 7.62 9 12.24 9 17 C9.66 17 10.32 17 11 17 C11 17.99 11 18.98 11 20 C12.17369141 19.98259766 12.17369141 19.98259766 13.37109375 19.96484375 C14.88896484 19.95130859 14.88896484 19.95130859 16.4375 19.9375 C17.44683594 19.92589844 18.45617187 19.91429688 19.49609375 19.90234375 C22 20 22 20 23 21 C23.0165911 22.41844613 22.9633054 23.83787607 22.87890625 25.25390625 C22.83056641 26.10791016 22.78222656 26.96191406 22.73242188 27.84179688 C22.67634766 28.73962891 22.62027344 29.63746094 22.5625 30.5625 C22.51029297 31.46419922 22.45808594 32.36589844 22.40429688 33.29492188 C22.27419751 35.5302655 22.13922064 37.7652089 22 40 C24.56988274 38.48395407 27.09509883 36.93660078 29.578125 35.28125 C37.68781857 29.87478762 45.05955073 25.87769121 55 27 C59.32645441 28.69069862 62.55019405 31.02266799 65 35 C66.08876806 40.76752812 65.22408035 45.98417902 62.33984375 51.0546875 C58.80852335 56.18179409 54.48258488 60.69671852 50 65 C51.03125 65.04125 52.0625 65.0825 53.125 65.125 C57.93780548 66.21176253 60.3259999 67.87312651 63 72 C64.55958366 76.17271584 64.4079232 79.0287543 62.6875 83.125 C57.22097967 88.97290547 49.32021629 93.7761546 41.23046875 94.1953125 C39.88267285 94.18216327 38.53494305 94.1585249 37.1875 94.125 C36.49462891 94.11597656 35.80175781 94.10695313 35.08789062 94.09765625 C33.39177605 94.07426157 31.69584129 94.03839641 30 94 C29.67 94.66 29.34 95.32 29 96 C28.030625 96.061875 27.06125 96.12375 26.0625 96.1875 C22.20215578 96.57432386 20.13700435 98.25204805 17.125 100.625 C13.62596992 103.22793701 11.52874809 104.53060838 7.125 104.125 C3.83875476 103.43285277 1.32728465 102.52965723 -1 100 C-1 99.34 -1 98.68 -1 98 C-1.82177734 98.73283203 -1.82177734 98.73283203 -2.66015625 99.48046875 C-5.49210019 101.31957759 -7.09038429 101.37285021 -10.4375 101.3125 C-11.36433594 101.30863281 -12.29117188 101.30476563 -13.24609375 101.30078125 C-16.14274499 100.98440941 -18.32669755 100.11617267 -21 99 C-21.639375 99.165 -22.27875 99.33 -22.9375 99.5 C-25.98960317 100.2399038 -28.1381611 99.10571048 -31 98 C-31 97.01 -31 96.02 -31 95 C-31.64066406 95.3609375 -32.28132813 95.721875 -32.94140625 96.09375 C-38.09025486 98.8561725 -42.00793956 100.93993105 -48 100 C-50.31279611 98.84360194 -52.17409828 97.82590172 -54 96 C-54.10469818 93.93527253 -54.13856244 91.86692996 -54.14526367 89.79956055 C-54.14862228 89.15235046 -54.1519809 88.50514038 -54.15544128 87.83831787 C-54.16497944 85.68776556 -54.16689605 83.53729092 -54.16796875 81.38671875 C-54.17118019 79.8955736 -54.17454417 78.40442878 -54.17805481 76.9132843 C-54.18405383 73.78178172 -54.185894 70.65030676 -54.18530273 67.51879883 C-54.18520126 63.50707903 -54.19883474 59.49553681 -54.21607494 55.48385906 C-54.22719944 52.40148608 -54.22922178 49.31915591 -54.22869301 46.23676491 C-54.22987317 44.75799766 -54.23429697 43.27922932 -54.24202538 41.8004818 C-54.25183111 39.72973644 -54.24894475 37.65937468 -54.24291992 35.58862305 C-54.24434494 34.4102739 -54.24576996 33.23192474 -54.24723816 32.01786804 C-54.00686732 29.08382466 -53.60393703 27.43616957 -52 25 C-50.24414062 23.81152344 -50.24414062 23.81152344 -48.15625 22.859375 C-47.40472656 22.51132812 -46.65320313 22.16328125 -45.87890625 21.8046875 C-45.09386719 21.45664062 -44.30882812 21.10859375 -43.5 20.75 C-42.71496094 20.38648437 -41.92992187 20.02296875 -41.12109375 19.6484375 C-35.31643562 17 -35.31643562 17 -33 17 C-32.67 16.01 -32.34 15.02 -32 14 C-29.37963867 12.37426758 -29.37963867 12.37426758 -25.91796875 10.64453125 C-25.30738113 10.33803146 -24.69679352 10.03153168 -24.06770325 9.71574402 C-22.77468061 9.06972249 -21.47916336 8.42867367 -20.18139648 7.79223633 C-18.19922126 6.81825945 -16.22731725 5.82553749 -14.25585938 4.83007812 C-12.99796579 4.20458166 -11.73951931 3.5801956 -10.48046875 2.95703125 C-9.33473389 2.38960205 -8.18899902 1.82217285 -7.00854492 1.23754883 C-4 0 -4 0 0 0 Z " fill="#CE8779" transform="translate(403,15)"/>
<path d="M0 0 C0 0.66 0 1.32 0 2 C2.97 2.33 5.94 2.66 9 3 C9 8.28 9 13.56 9 19 C1.75 21.625 1.75 21.625 -0.45019531 22.40869141 C-4.88072835 24.04335765 -9.07536989 25.9901418 -13.29199219 28.11865234 C-14.89938263 28.9282692 -14.89938263 28.9282692 -16.53924561 29.75424194 C-17.35129456 30.1653421 -18.16334351 30.57644226 -19 31 C-18.99333817 31.82019119 -18.98667633 32.64038239 -18.97981262 33.48542786 C-18.91973122 41.21045133 -18.87404087 48.93536171 -18.84456348 56.66055775 C-18.82889944 60.63228627 -18.80764801 64.60382193 -18.77368164 68.57543945 C-18.74111404 72.40743089 -18.72315255 76.23923668 -18.71536827 80.07135582 C-18.70982004 81.53422659 -18.69898575 82.99708707 -18.68280983 84.45987892 C-18.66106921 86.50708696 -18.65803153 88.5535254 -18.65942383 90.60083008 C-18.65276199 91.76665115 -18.64610016 92.93247223 -18.63923645 94.13362122 C-19 97 -19 97 -20.39360046 98.89530945 C-23.42064068 100.9769477 -26.55362325 99.62147778 -30 99 C-30.33 97.68 -30.66 96.36 -31 95 C-31.64066406 95.3609375 -32.28132813 95.721875 -32.94140625 96.09375 C-38.09025486 98.8561725 -42.00793956 100.93993105 -48 100 C-50.31279611 98.84360194 -52.17409828 97.82590172 -54 96 C-54.10469818 93.93527253 -54.13856244 91.86692996 -54.14526367 89.79956055 C-54.14862228 89.15235046 -54.1519809 88.50514038 -54.15544128 87.83831787 C-54.16497944 85.68776556 -54.16689605 83.53729092 -54.16796875 81.38671875 C-54.17118019 79.8955736 -54.17454417 78.40442878 -54.17805481 76.9132843 C-54.18405383 73.78178172 -54.185894 70.65030676 -54.18530273 67.51879883 C-54.18520126 63.50707903 -54.19883474 59.49553681 -54.21607494 55.48385906 C-54.22719944 52.40148608 -54.22922178 49.31915591 -54.22869301 46.23676491 C-54.22987317 44.75799766 -54.23429697 43.27922932 -54.24202538 41.8004818 C-54.25183111 39.72973644 -54.24894475 37.65937468 -54.24291992 35.58862305 C-54.24434494 34.4102739 -54.24576996 33.23192474 -54.24723816 32.01786804 C-54.00686732 29.08382466 -53.60393703 27.43616957 -52 25 C-50.24414062 23.81152344 -50.24414062 23.81152344 -48.15625 22.859375 C-47.40472656 22.51132812 -46.65320313 22.16328125 -45.87890625 21.8046875 C-45.09386719 21.45664062 -44.30882812 21.10859375 -43.5 20.75 C-42.71496094 20.38648437 -41.92992187 20.02296875 -41.12109375 19.6484375 C-35.31643562 17 -35.31643562 17 -33 17 C-32.67 16.01 -32.34 15.02 -32 14 C-29.37963867 12.37426758 -29.37963867 12.37426758 -25.91796875 10.64453125 C-25.30738113 10.33803146 -24.69679352 10.03153168 -24.06770325 9.71574402 C-22.77468061 9.06972249 -21.47916336 8.42867367 -20.18139648 7.79223633 C-18.19922126 6.81825945 -16.22731725 5.82553749 -14.25585938 4.83007812 C-12.99796579 4.20458166 -11.73951931 3.5801956 -10.48046875 2.95703125 C-9.33473389 2.38960205 -8.18899902 1.82217285 -7.00854492 1.23754883 C-4 0 -4 0 0 0 Z " fill="#25444D" transform="translate(403,15)"/>
<path d="M0 0 C3.47714547 2.45445562 5.81208013 4.26128935 6.62109375 8.546875 C6.63974401 20.2592365 0.60929629 26.68918329 -7.25 34.75 C-7.765625 35.245 -8.28125 35.74 -8.8125 36.25 C-7.78125 36.29125 -6.75 36.3325 -5.6875 36.375 C-0.87469452 37.46176253 1.5134999 39.12312651 4.1875 43.25 C5.74708366 47.42271584 5.5954232 50.2787543 3.875 54.375 C-1.50592824 60.13134184 -9.41531038 65.05403829 -17.40625 65.41015625 C-18.6953125 65.37792969 -19.984375 65.34570312 -21.3125 65.3125 C-26.52390301 65.16607859 -26.52390301 65.16607859 -31.65625 65.87109375 C-32.3678125 65.99613281 -33.079375 66.12117188 -33.8125 66.25 C-34.4725 65.59 -35.1325 64.93 -35.8125 64.25 C-35.1525 64.25 -34.4925 64.25 -33.8125 64.25 C-33.84279297 63.60675781 -33.87308594 62.96351562 -33.90429688 62.30078125 C-34.49273456 49.60863309 -34.9806824 36.95711486 -34.8125 24.25 C-32.8325 24.25 -30.8525 24.25 -28.8125 24.25 C-28.8125 29.86 -28.8125 35.47 -28.8125 41.25 C-26.3375 40.755 -26.3375 40.755 -23.8125 40.25 C-23.4825 39.59 -23.1525 38.93 -22.8125 38.25 C-22.8125 38.91 -22.8125 39.57 -22.8125 40.25 C-8.93157615 30.80002258 -8.93157615 30.80002258 0.1875 17.25 C0.84699511 12.91332004 1.11399842 8.6333667 1.1875 4.25 C-12.66047503 3.15833482 -20.24161141 7.03596223 -30.625 15.625 C-38.41910296 22.35503453 -43.41616696 27.84972635 -44.8125 38.25 C-45.1425 37.59 -45.4725 36.93 -45.8125 36.25 C-46.4725 36.25 -47.1325 36.25 -47.8125 36.25 C-47.8125 37.9 -47.8125 39.55 -47.8125 41.25 C-48.1425 41.25 -48.4725 41.25 -48.8125 41.25 C-50.91538601 28.88120682 -50.91538601 28.88120682 -47.375 23.375 C-43.99781177 19.10086801 -40.01782358 15.67919983 -35.8125 12.25 C-34.45611161 11.02328545 -33.10192207 9.794135 -31.75 8.5625 C-23.53495812 1.41829043 -10.72283313 -5.68737271 0 0 Z " fill="#0E0E0E" transform="translate(461.8125,43.75)"/>
<path d="M0 0 C0.66 0 1.32 0 2 0 C2 0.99 2 1.98 2 3 C2.78246094 2.98839844 3.56492187 2.97679687 4.37109375 2.96484375 C5.38300781 2.95582031 6.39492188 2.94679687 7.4375 2.9375 C8.44683594 2.92589844 9.45617187 2.91429687 10.49609375 2.90234375 C13 3 13 3 14 4 C14.14115161 6.67058851 14.04247107 9.32432238 14 12 C13.34 12 12.68 12 12 12 C12 15.3 12 18.6 12 22 C11.33613281 22.09152344 10.67226563 22.18304688 9.98828125 22.27734375 C6.11583434 23.21381784 2.76252211 24.83532111 -0.8125 26.5625 C-3.184375 27.696875 -5.55625 28.83125 -8 30 C-8 24.39 -8 18.78 -8 13 C-10.64 13.66 -13.28 14.32 -16 15 C-15.88031662 21.61222912 -15.75559064 28.22435065 -15.62768555 34.83642578 C-15.58491269 37.07631378 -15.54321005 39.31622253 -15.50268555 41.55615234 C-15.2455335 55.72173801 -14.81117058 69.85477764 -14 84 C-24.35031601 84.49287219 -24.35031601 84.49287219 -27.13848877 82.37767029 C-29.5584905 79.28665149 -29.52925633 77.46844516 -29.58105469 73.56665039 C-29.6065741 72.26172134 -29.63209351 70.9567923 -29.65838623 69.61231995 C-29.66450099 68.19077142 -29.66895681 66.76921493 -29.671875 65.34765625 C-29.68473368 63.88560973 -29.6981906 62.42356836 -29.71221924 60.96153259 C-29.73614985 57.89911977 -29.74358251 54.83715791 -29.74121094 51.7746582 C-29.74080424 47.85504542 -29.7954298 43.9383285 -29.86429977 40.0194025 C-29.9088327 37.00034885 -29.91688652 33.98199303 -29.91477203 30.96264458 C-29.91948413 29.5181014 -29.93713385 28.07353903 -29.9681015 26.62932014 C-30.18692247 15.37152842 -30.18692247 15.37152842 -27.31011963 12.04728699 C-25.24328963 10.72041031 -23.30871949 9.82311096 -21 9 C-20.20625977 8.60063232 -19.41251953 8.20126465 -18.59472656 7.78979492 C-17.94987305 7.52271729 -17.30501953 7.25563965 -16.640625 6.98046875 C-15.91746094 6.68076172 -15.19429688 6.38105469 -14.44921875 6.07226562 C-13.72347656 5.78029297 -12.99773437 5.48832031 -12.25 5.1875 C-11.13818359 4.72053711 -11.13818359 4.72053711 -10.00390625 4.24414062 C-6.29081138 2.72757136 -4.12685723 2 0 2 C0 1.34 0 0.68 0 0 Z " fill="#727D9E" transform="translate(412,32)"/>
<path d="M0 0 C1 1 1 1 1.08984375 3.625 C0.59268812 14.63890941 -3.18928193 20.85245081 -11.0859375 28.296875 C-11.71757812 28.85890625 -12.34921875 29.4209375 -13 30 C-13.71414063 30.64453125 -14.42828125 31.2890625 -15.1640625 31.953125 C-15.91429687 32.58734375 -16.66453125 33.2215625 -17.4375 33.875 C-18.11683594 34.44992188 -18.79617188 35.02484375 -19.49609375 35.6171875 C-22 37 -22 37 -30 38 C-30 32.39 -30 26.78 -30 21 C-31.98 21 -33.96 21 -36 21 C-36.33 22.32 -36.66 23.64 -37 25 C-37.66 25 -38.32 25 -39 25 C-39.33 26.32 -39.66 27.64 -40 29 C-41.32 28.67 -42.64 28.34 -44 28 C-43.34 28.66 -42.68 29.32 -42 30 C-41.34 30 -40.68 30 -40 30 C-40 30.66 -40 31.32 -40 32 C-39.34 32 -38.68 32 -38 32 C-37.67 31.34 -37.34 30.68 -37 30 C-37.375 32.4375 -37.375 32.4375 -38 35 C-38.99 35.495 -38.99 35.495 -40 36 C-40 36.66 -40 37.32 -40 38 C-39.34 38.33 -38.68 38.66 -38 39 C-37.67 38.34 -37.34 37.68 -37 37 C-37 38.32 -37 39.64 -37 41 C-41.455 41.495 -41.455 41.495 -46 42 C-45.67 43.65 -45.34 45.3 -45 47 C-43.8553125 46.505 -43.8553125 46.505 -42.6875 46 C-40 45 -40 45 -37 45 C-36.36980306 54.17286652 -36.36980306 54.17286652 -39 57.625 C-39.99 58.305625 -39.99 58.305625 -41 59 C-39.515 58.505 -39.515 58.505 -38 58 C-37.7578125 60.29296875 -37.7578125 60.29296875 -38 63 C-39.6796875 64.80078125 -39.6796875 64.80078125 -41.875 66.3125 C-42.59429687 66.82425781 -43.31359375 67.33601563 -44.0546875 67.86328125 C-46 69 -46 69 -48 69 C-51.25035285 56.23075666 -52.41163797 43.14954638 -52 30 C-51.54625 30.495 -51.0925 30.99 -50.625 31.5 C-49.12364481 33.22609337 -49.12364481 33.22609337 -47 33 C-46.71125 31.741875 -46.4225 30.48375 -46.125 29.1875 C-42.34402073 17.98524979 -31.43045833 10.34843703 -22 4 C-21.32453125 3.52304687 -20.6490625 3.04609375 -19.953125 2.5546875 C-13.8976677 -1.14586974 -6.87248776 -0.56882192 0 0 Z " fill="#D1A371" transform="translate(463,47)"/>
<path d="M0 0 C0.66 0.33 1.32 0.66 2 1 C2 1.66 2 2.32 2 3 C5.3 3.66 8.6 4.32 12 5 C12.02482064 12.79215262 12.04291705 20.58428194 12.05493164 28.37646484 C12.05994333 31.02425538 12.06675444 33.67204318 12.07543945 36.31982422 C12.08764403 40.13770223 12.0932601 43.95554346 12.09765625 47.7734375 C12.10281754 48.94675629 12.10797882 50.12007507 12.11329651 51.32894897 C12.11439723 67.6568083 12.11439723 67.6568083 10 74 C5.00815264 74.29363808 2.02555256 74.07836372 -2 71 C-3.37924447 68.24151106 -3.09200709 66.06378697 -3.0534668 62.97729492 C-3.0398259 61.71225632 -3.026185 60.44721771 -3.01213074 59.1438446 C-2.99155633 57.75604672 -2.97057564 56.36825481 -2.94921875 54.98046875 C-2.92998652 53.56041189 -2.91093071 52.14035263 -2.89204407 50.72029114 C-2.85102492 47.7401381 -2.80580335 44.76008178 -2.75805664 41.7800293 C-2.69758896 37.96701417 -2.65061028 34.1539667 -2.60722637 30.34072399 C-2.57179647 27.40575525 -2.5275658 24.47096684 -2.48087502 21.53615761 C-2.45987251 20.13083448 -2.44195753 18.72546162 -2.4272213 17.32005882 C-2.40555806 15.35021322 -2.37041215 13.38052997 -2.3347168 11.41088867 C-2.31837692 10.29107101 -2.30203705 9.17125336 -2.28520203 8.01750183 C-1.998159 4.98052178 -1.28308381 2.75115645 0 0 Z " fill="#C19D72" transform="translate(352,41)"/>
<path d="M0 0 C5.54151161 0.68098453 9.34391157 1.58392639 13.73046875 5.3125 C16.23525303 9.06967642 16.21569367 11.96895432 15.73046875 16.3125 C14.08422967 23.78043909 9.34619388 30.95191677 3.79296875 36.11328125 C1.28370177 37.57226792 0.01966063 37.56386543 -2.83203125 37.1875 C-3.59644531 37.10242188 -4.36085938 37.01734375 -5.1484375 36.9296875 C-7.73972447 36.17568503 -8.72927144 35.5335643 -10.26953125 33.3125 C-11.27531531 26.74532174 -10.44648469 20.5584175 -8.05859375 14.41015625 C-7.25944946 12.28569841 -6.75105 10.2158024 -6.26953125 8 C-4.25907639 0.5864477 -4.25907639 0.5864477 0 0 Z " fill="#111111" transform="translate(482.26953125,61.6875)"/>
<path d="M0 0 C0 0.66 0 1.32 0 2 C1.03125 1.896875 2.0625 1.79375 3.125 1.6875 C6.930822 1.99442113 9.08197427 2.53329074 11.89453125 5.1875 C14.30962625 9.14723173 13.70478134 13.58420188 13 18 C10.97085195 25.26779824 5.23290197 30.81760867 0 36 C-3.13871188 37.56935594 -5.53855822 37.35201103 -9 37 C-11.9375 35 -11.9375 35 -14 32 C-14.94433679 25.91427402 -13.31213462 21.4036822 -11.07421875 15.75 C-10.0817992 13.20940595 -9.27769077 10.67485352 -8.5 8.0625 C-6.96942547 3.42086636 -5.30318888 0 0 0 Z " fill="#181818" transform="translate(513,61)"/>
<path d="M0 0 C2.0625 0.4375 2.0625 0.4375 4 1 C4.75 2.59765625 4.75 2.59765625 5 5 C3.75417157 7.29699617 2.49324872 9.31271806 1 11.4375 C0.165623 12.6798495 -0.66503364 13.92470471 -1.4921875 15.171875 C-1.91209961 15.80416016 -2.33201172 16.43644531 -2.76464844 17.08789062 C-4.682651 20.05662503 -6.4122262 23.09479913 -8.125 26.1875 C-8.70507812 27.23292969 -9.28515625 28.27835938 -9.8828125 29.35546875 C-11.35640686 32.0315834 -11.35640686 32.0315834 -10 35 C-7.56012348 33.23236498 -5.12306583 31.46105712 -2.6875 29.6875 C-1.65206055 28.93823242 -1.65206055 28.93823242 -0.59570312 28.17382812 C0.07138672 27.68720703 0.73847656 27.20058594 1.42578125 26.69921875 C2.03848877 26.25408936 2.65119629 25.80895996 3.2824707 25.3503418 C6.10607176 23.13039334 8.41243404 20.57947211 10.6875 17.8125 C11.450625 16.884375 12.21375 15.95625 13 15 C15.475 15.495 15.475 15.495 18 16 C17.6197778 18.29108247 17.3244554 19.66786518 15.6796875 21.3515625 C15.08414063 21.77179687 14.48859375 22.19203125 13.875 22.625 C13.16085937 23.13289063 12.44671875 23.64078125 11.7109375 24.1640625 C7.66498213 26.90411873 3.60040346 29.61579034 -0.47973633 32.3046875 C-4.01383383 34.64086884 -7.45609749 37.03559989 -10.8125 39.625 C-14 42 -14 42 -16 42 C-16 42.66 -16 43.32 -16 44 C-15.44538086 44.01981934 -14.89076172 44.03963867 -14.31933594 44.06005859 C-11.79576307 44.15557651 -9.27298776 44.26514567 -6.75 44.375 C-5.44095703 44.42140625 -5.44095703 44.42140625 -4.10546875 44.46875 C-3.26113281 44.50742188 -2.41679688 44.54609375 -1.546875 44.5859375 C-0.77182617 44.6173584 0.00322266 44.6487793 0.80175781 44.68115234 C3.24940945 45.036176 4.90906401 45.68693854 7 47 C7.75 49.125 7.75 49.125 8 51 C7.01 51 6.02 51 5 51 C5 50.34 5 49.68 5 49 C-2.92 49 -10.84 49 -19 49 C-21.80468764 55.9039672 -21.80468764 55.9039672 -22.1875 62.5 C-22.16042969 63.3559375 -22.13335938 64.211875 -22.10546875 65.09375 C-22.07066406 65.7228125 -22.03585937 66.351875 -22 67 C-24.44682592 66.02126963 -25.77652538 65.32174961 -27.296875 63.1328125 C-28.12919285 60.60811502 -27.94501024 59.4202402 -27.25 56.875 C-26.13753972 52.62934462 -25.39645004 48.40778274 -24.7578125 44.06640625 C-24 42 -24 42 -22.0546875 41.08984375 C-19.71835659 40.13847235 -19.71835659 40.13847235 -18.97265625 37.33203125 C-18.49119141 35.68267578 -18.49119141 35.68267578 -18 34 C-16.84877546 31.53466782 -15.67277121 29.10940494 -14.4375 26.6875 C-14.09323975 26.0061499 -13.74897949 25.3247998 -13.39428711 24.62280273 C-10.66404651 19.24490779 -7.87470975 13.89791995 -5.0625 8.5625 C-4.67312256 7.82281982 -4.28374512 7.08313965 -3.88256836 6.32104492 C-1.12301344 1.12301344 -1.12301344 1.12301344 0 0 Z " fill="#171717" transform="translate(551,40)"/>
<path d="M0 0 C0.32364804 4.16329067 -0.43080564 6.1921331 -2.75 9.625 C-6.05896261 14.83151937 -8.10900757 20.14904694 -10 26 C-5.73329234 23.57996511 -2.35675215 20.73864491 1.23046875 17.42578125 C3 16 3 16 5 16 C5.38285156 15.14148438 5.38285156 15.14148438 5.7734375 14.265625 C7.13087159 11.75826267 8.71974104 9.8669544 10.625 7.75 C11.25664063 7.04359375 11.88828125 6.3371875 12.5390625 5.609375 C13.02117188 5.07828125 13.50328125 4.5471875 14 4 C16.475 4.495 16.475 4.495 19 5 C18.44966917 8.79927186 17.46400808 11.11565492 15.1875 14.1875 C11.93051539 18.84930448 9.89521308 23.65995845 8 29 C12.79697523 26.34080445 12.79697523 26.34080445 17.3125 23.25 C19 22 19 22 21 22 C21 21.34 21 20.68 21 20 C22.96875 18.4921875 22.96875 18.4921875 25.5 16.875 C26.3353125 16.33617188 27.170625 15.79734375 28.03125 15.2421875 C28.6809375 14.83226563 29.330625 14.42234375 30 14 C28.57743176 22.03751054 19.38278286 29.50176463 13 34 C10.45975594 34.86228468 8.71222742 35 6 35 C4.09598862 33.09598862 3.06479561 31.66574314 2.80078125 28.953125 C2.8113422 26.96766727 2.90084957 24.9830086 3 23 C2.57589844 23.49371094 2.15179687 23.98742187 1.71484375 24.49609375 C-1.3259888 27.81761853 -3.35061593 29.77986981 -7.6875 31.25 C-11 31 -11 31 -13.5 29.0625 C-15.4935075 24.9924222 -15.19769691 22.21617006 -14 18 C-7.82654402 0 -7.82654402 0 0 0 Z " fill="#0B0B0B" transform="translate(574,73)"/>
<path d="M0 0 C1 1 1 1 1.0546875 2.78515625 C0.20085126 13.60660251 -6.20303489 19.9575799 -14 27 C-22.38970588 34 -22.38970588 34 -24 34 C-24.36503359 30.0842664 -24.71513882 26.1673377 -25.0625 22.25 C-25.16626953 21.13882813 -25.27003906 20.02765625 -25.37695312 18.8828125 C-25.47041016 17.81289062 -25.56386719 16.74296875 -25.66015625 15.640625 C-25.74918213 14.65610352 -25.83820801 13.67158203 -25.92993164 12.65722656 C-25.99605323 10.14967453 -25.86474669 8.34427934 -25 6 C-17.56622329 -0.2934498 -9.39341885 -1.04518322 0 0 Z " fill="#F9F9F9" transform="translate(463,47)"/>
<path d="M0 0 C0.33 0 0.66 0 1 0 C1 3.63 1 7.26 1 11 C1.66 11.33 2.32 11.66 3 12 C2.01 12.66 1.02 13.32 0 14 C-0.99 13.67 -1.98 13.34 -3 13 C-5.40084462 13.80972016 -5.40084462 13.80972016 -8 15 C-8.86625 15.2475 -9.7325 15.495 -10.625 15.75 C-15.69925725 17.62935454 -20.29838873 20.33965768 -25 23 C-25.97424831 38.66916038 -24.12167541 55.87191621 -20 71 C-20.66 71 -21.32 71 -22 71 C-22 70.34 -22 69.68 -22 69 C-24.475 69.99 -24.475 69.99 -27 71 C-27.99221543 56.09439622 -28.12072239 41.24709224 -28.0625 26.3125 C-28.05746919 24.03841246 -28.05290911 21.76432382 -28.04882812 19.49023438 C-28.03796105 13.9934652 -28.02135116 8.49673794 -28 3 C-24.91190305 1.23537317 -23.76687864 1 -20 1 C-19.67 6.28 -19.34 11.56 -19 17 C-17.86820312 16.4225 -16.73640625 15.845 -15.5703125 15.25 C-14.08864793 14.49979009 -12.60687127 13.74980153 -11.125 13 C-10.37863281 12.6184375 -9.63226563 12.236875 -8.86328125 11.84375 C-8.14785156 11.4828125 -7.43242187 11.121875 -6.6953125 10.75 C-6.03547363 10.41484375 -5.37563477 10.0796875 -4.69580078 9.734375 C-3 9 -3 9 -1 9 C-0.67 6.03 -0.34 3.06 0 0 Z " fill="#8E6B65" transform="translate(424,44)"/>
<path d="M0 0 C0.66 0 1.32 0 2 0 C3.16550657 6.68992234 3.31913854 13.37460823 3.53515625 20.15234375 C3.57813339 21.40761368 3.62111053 22.66288361 3.66539001 23.95619202 C3.77823745 27.27194532 3.88781976 30.58777312 3.99578857 33.90368652 C4.10705743 37.29591058 4.22266318 40.68798663 4.33789062 44.08007812 C4.56256778 50.7199236 4.78293762 57.35990146 5 64 C2.36 65.32 -0.28 66.64 -3 68 C-2.88124561 60.70823656 -2.75645646 53.41659337 -2.62768555 46.125 C-2.58466462 43.65008827 -2.5429702 41.17515309 -2.50268555 38.70019531 C-1.90125 1.90125 -1.90125 1.90125 0 0 Z " fill="#D6A571" transform="translate(367,44)"/>
<path d="M0 0 C1.23920252 2.47840505 1.30731035 4.46203224 1.53515625 7.2265625 C1.62216797 8.2578125 1.70917969 9.2890625 1.79882812 10.3515625 C1.88583984 11.43179688 1.97285156 12.51203125 2.0625 13.625 C2.15337891 14.71296875 2.24425781 15.8009375 2.33789062 16.921875 C2.56225951 19.61430157 2.78280114 22.30698709 3 25 C11.62535055 17.94407413 19.32460016 10.98611518 26 2 C25.56127007 10.77459862 18.97550826 16.23810847 12.9375 21.875 C12.43114014 22.35155029 11.92478027 22.82810059 11.40307617 23.3190918 C6.34028297 27.90912702 2.74826401 28.87528933 -4 30 C-4 24.39 -4 18.78 -4 13 C-5.98 13 -7.96 13 -10 13 C-10.33 14.32 -10.66 15.64 -11 17 C-11.66 17 -12.32 17 -13 17 C-13.33 18.32 -13.66 19.64 -14 21 C-15.98 21.33 -17.96 21.66 -20 22 C-18.19192637 15.17954449 -8.14450391 0 0 0 Z " fill="#CEA06E" transform="translate(437,55)"/>
<path d="M0 0 C1 1 1 1 1.4375 3.625 C0.81433785 8.43225088 -1.47617981 10.80361443 -5 14 C-11.21697944 18.64793225 -19.228701 21.59779223 -27 21 C-26.195625 20.05125 -25.39125 19.1025 -24.5625 18.125 C-21.34415116 13.69749749 -21.11834408 9.3470006 -21 4 C-13.95162528 0.57519319 -7.85747514 -0.86988382 0 0 Z " fill="#F6F6F6" transform="translate(461,84)"/>
<path d="M0 0 C0.33 6.27 0.66 12.54 1 19 C0.67 19 0.34 19 0 19 C0 16.69 0 14.38 0 12 C-0.99 12.495 -0.99 12.495 -2 13 C-4.34677712 26.18554523 -3.34083761 40.52640028 -3.5625 53.875 C-3.60577826 56.31641233 -3.64939522 58.75781868 -3.69335938 61.19921875 C-3.79947966 67.13274918 -3.9014123 73.06633988 -4 79 C-3.401875 78.649375 -2.80375 78.29875 -2.1875 77.9375 C0 77 0 77 3 78 C-2.5825192 81.32575612 -6.49686791 82.46450943 -13 82 C-13 81.67 -13 81.34 -13 81 C-10.03 80.505 -10.03 80.505 -7 80 C-6.06633272 72.2541365 -5.79464939 64.57021932 -5.68359375 56.7734375 C-5.6524221 54.93019394 -5.6524221 54.93019394 -5.62062073 53.04971313 C-5.5556955 49.15819415 -5.49650762 45.26661276 -5.4375 41.375 C-5.39426044 38.72265002 -5.3506445 36.07030616 -5.30664062 33.41796875 C-5.20007327 26.94537678 -5.09820532 20.47272396 -5 14 C-6.10601562 14.01804687 -7.21203125 14.03609375 -8.3515625 14.0546875 C-11.73614336 14.00395502 -13.27791137 13.8845229 -16 12 C-16.33 11.34 -16.66 10.68 -17 10 C-18.05450249 13.47288591 -18.15544791 16.70964847 -18.20532227 20.32910156 C-18.22526749 21.61012756 -18.24521271 22.89115356 -18.26576233 24.21099854 C-18.28274409 25.60420614 -18.29962299 26.99741499 -18.31640625 28.390625 C-18.33698794 29.81980983 -18.35798473 31.24898873 -18.37937927 32.67816162 C-18.43447449 36.4329345 -18.48393888 40.18776118 -18.53222656 43.94262695 C-18.58253345 47.77690395 -18.63817148 51.6111032 -18.69335938 55.4453125 C-18.80078736 62.96347575 -18.90226616 70.48170382 -19 78 C-19.33 78 -19.66 78 -20 78 C-20.04634803 69.46376552 -20.08188171 60.92758365 -20.10362434 52.39125443 C-20.1140599 48.42745773 -20.12821492 44.46374714 -20.15087891 40.5 C-20.17261545 36.67449853 -20.18457034 32.84907988 -20.18975449 29.02352142 C-20.19344879 27.56428473 -20.20066283 26.10505256 -20.21146011 24.64585114 C-20.225986 22.60136635 -20.22797751 20.55722343 -20.22705078 18.51269531 C-20.231492 17.34909485 -20.23593323 16.18549438 -20.24050903 14.9866333 C-20.00527813 12.06554369 -19.5960024 10.42663966 -18 8 C-16.22827148 6.81152344 -16.22827148 6.81152344 -14.12109375 5.859375 C-12.98704102 5.33730469 -12.98704102 5.33730469 -11.83007812 4.8046875 C-11.04052734 4.45664062 -10.25097656 4.10859375 -9.4375 3.75 C-8.24737305 3.20472656 -8.24737305 3.20472656 -7.03320312 2.6484375 C-1.20365367 0 -1.20365367 0 0 0 Z " fill="#59635D" transform="translate(369,32)"/>
<path d="M0 0 C0 5.61 0 11.22 0 17 C-1.65 17.33 -3.3 17.66 -5 18 C-6.94511339 18.72825495 -6.94511339 18.72825495 -8.76953125 19.62890625 C-9.36612549 19.91064697 -9.96271973 20.1923877 -10.57739258 20.48266602 C-11.68377075 21.01718384 -11.68377075 21.01718384 -12.8125 21.5625 C-15.184375 22.696875 -17.55625 23.83125 -20 25 C-20 19.39 -20 13.78 -20 8 C-17.23239564 6.65958189 -14.46130214 5.32747847 -11.6875 4 C-10.90181641 3.6184375 -10.11613281 3.236875 -9.30664062 2.84375 C-8.54931641 2.4828125 -7.79199219 2.121875 -7.01171875 1.75 C-6.31522217 1.41484375 -5.61872559 1.0796875 -4.90112305 0.734375 C-3 0 -3 0 0 0 Z " fill="#E08A79" transform="translate(424,37)"/>
<path d="M0 0 C2.3431213 0.25561323 4.67843403 0.59270772 7 1 C8.89806637 4.79613274 8.62920684 9.10518854 7.31640625 13.05859375 C4.23064783 19.62703387 -0.26646779 25.90621493 -7 29 C-7.99 29 -8.98 29 -10 29 C-9.27974822 18.19622334 -6.1680232 8.90936684 0 0 Z " fill="#F5F5F5" transform="translate(514,65)"/>
<path d="M0 0 C0.94875 0.185625 1.8975 0.37125 2.875 0.5625 C5.36502348 4.29753522 5.39357542 7.23837884 4.875 11.5625 C2.03208052 19.80696648 -2.40932353 25.24277875 -9.125 30.5625 C-9.785 30.2325 -10.445 29.9025 -11.125 29.5625 C-11.81134202 21.1548102 -9.90320365 1.78257666 0 0 Z " fill="#F6F6F6" transform="translate(488.125,65.4375)"/>
<path d="M0 0 C1.98 0 3.96 0 6 0 C6 5.61 6 11.22 6 17 C7.65 16.67 9.3 16.34 11 16 C11.33 15.34 11.66 14.68 12 14 C12 14.66 12 15.32 12 16 C12.7425 15.525625 13.485 15.05125 14.25 14.5625 C16.64697826 13.20058054 18.34590307 12.53081939 21 12 C21.99 11.67 22.98 11.34 24 11 C23.67 12.32 23.34 13.64 23 15 C23.99 14.67 24.98 14.34 26 14 C26 14.66 26 15.32 26 16 C25.09636719 16.33773437 24.19273437 16.67546875 23.26171875 17.0234375 C22.08222656 17.46945313 20.90273438 17.91546875 19.6875 18.375 C18.51574219 18.81585938 17.34398437 19.25671875 16.13671875 19.7109375 C12.91446407 20.91489648 12.91446407 20.91489648 10 23 C8.68 22.67 7.36 22.34 6 22 C5.67 28.27 5.34 34.54 5 41 C3.02 41.495 3.02 41.495 1 42 C0.34 41.34 -0.32 40.68 -1 40 C-0.34 40 0.32 40 1 40 C0.96970703 39.35675781 0.93941406 38.71351562 0.90820312 38.05078125 C0.31976544 25.35863309 -0.1681824 12.70711486 0 0 Z " fill="#040302" transform="translate(427,68)"/>
<path d="M0 0 C0.66 1.32 1.32 2.64 2 4 C1.32195312 4.47308594 0.64390625 4.94617187 -0.0546875 5.43359375 C-15.38553483 15.68001054 -15.38553483 15.68001054 -24.515625 31.0546875 C-24.86762069 33.16790789 -24.86762069 33.16790789 -25 36 C-25.33 35.34 -25.66 34.68 -26 34 C-26.66 34 -27.32 34 -28 34 C-28 35.65 -28 37.3 -28 39 C-28.33 39 -28.66 39 -29 39 C-31.10288601 26.63120682 -31.10288601 26.63120682 -27.5625 21.125 C-24.69754823 17.48537595 -21.40397412 14.43451502 -17.8203125 11.51171875 C-15.83256948 9.93499061 -15.83256948 9.93499061 -13.75 7.5 C-13.1725 7.005 -12.595 6.51 -12 6 C-10.66666667 6.33333333 -9.33333333 6.66666667 -8 7 C-6.64567325 5.68799596 -5.31266518 4.35368596 -4 3 C-2.68 3 -1.36 3 0 3 C0 2.01 0 1.02 0 0 Z " fill="#0F0E0C" transform="translate(442,46)"/>
<path d="M0 0 C0 0.66 0 1.32 0 2 C0.99 2.33 1.98 2.66 3 3 C2 6 2 6 0.27734375 6.88671875 C-0.49480469 7.15097656 -1.26695312 7.41523438 -2.0625 7.6875 C-7.73447339 9.77458977 -12.98731809 12.47706654 -18.28930664 15.3581543 C-22.37702434 17.49366488 -25.26598784 18.44105703 -30 18 C-30.33 17.34 -30.66 16.68 -31 16 C-31.66 15.67 -32.32 15.34 -33 15 C-27.44582197 12.06211864 -21.88642767 9.1343995 -16.32080078 6.21826172 C-14.42855701 5.22496313 -12.53991359 4.22480827 -10.65234375 3.22265625 C-9.79769531 2.77792969 -8.94304687 2.33320313 -8.0625 1.875 C-7.35222656 1.50117188 -6.64195312 1.12734375 -5.91015625 0.7421875 C-4 0 -4 0 0 0 Z " fill="#687A7F" transform="translate(403,15)"/>
<path d="M0 0 C0.99 0.33 1.98 0.66 3 1 C3 1.66 3 2.32 3 3 C1.609375 4.26171875 1.609375 4.26171875 -0.25 5.6875 C-5.30705971 9.88465482 -7.99444167 14.42836984 -9 21 C-9.07831674 22.91143363 -9.10788625 24.82527121 -9.09765625 26.73828125 C-9.09443359 27.80498047 -9.09121094 28.87167969 -9.08789062 29.97070312 C-9.07951172 31.07349609 -9.07113281 32.17628906 -9.0625 33.3125 C-9.05798828 34.43462891 -9.05347656 35.55675781 -9.04882812 36.71289062 C-9.03707313 39.4753151 -9.02064077 42.23762998 -9 45 C-9.33 45 -9.66 45 -10 45 C-12.38297872 23.46808511 -12.38297872 23.46808511 -12 13 C-14.01822917 13.09765625 -16.03645833 13.1953125 -18.0546875 13.29296875 C-18.69664062 13.19628906 -19.33859375 13.09960938 -20 13 C-20.66 12.01 -21.32 11.02 -22 10 C-19.60835832 8.67933245 -17.21219784 7.36838208 -14.8125 6.0625 C-14.13896484 5.68931641 -13.46542969 5.31613281 -12.77148438 4.93164062 C-9.16862804 2.98082573 -6.1033408 1.59262143 -2 1 C-1.34 0.67 -0.68 0.34 0 0 Z " fill="#886F67" transform="translate(421,56)"/>
<path d="M0 0 C0.33 0 0.66 0 1 0 C2.40618519 12.63055626 2.09640239 25.31196243 2 38 C3.32 38.66 4.64 39.32 6 40 C4.5459375 40.061875 4.5459375 40.061875 3.0625 40.125 C-1.38123436 40.7108879 -4.29836425 43.04477402 -7.7890625 45.72265625 C-10.3947592 47.2280676 -12.03912788 47.24414209 -15 47 C-14.01 46.505 -14.01 46.505 -13 46 C-13.2475 44.7625 -13.2475 44.7625 -13.5 43.5 C-14.05896045 39.58727683 -14.06807187 35.94816827 -14 32 C-12.32889958 34.96178773 -11.67317248 37.37071192 -11.375 40.75 C-11.30023438 41.54921875 -11.22546875 42.3484375 -11.1484375 43.171875 C-11.09945313 43.77515625 -11.05046875 44.3784375 -11 45 C-9.48943306 44.10085301 -7.99174571 43.18003899 -6.5 42.25 C-5.24703125 41.48429687 -5.24703125 41.48429687 -3.96875 40.703125 C-3.3190625 40.14109375 -2.669375 39.5790625 -2 39 C-2 37.68 -2 36.36 -2 35 C-2.66 35 -3.32 35 -4 35 C-3.67 34.01 -3.34 33.02 -3 32 C-2.34 31.67 -1.68 31.34 -1 31 C-0.53248212 28.64400765 -0.53248212 28.64400765 -0.375 25.9375 C-0.30023438 25.01839844 -0.22546875 24.09929687 -0.1484375 23.15234375 C-0.09945313 22.44207031 -0.05046875 21.73179688 0 21 C-0.94875 21.33 -1.8975 21.66 -2.875 22 C-6 23 -6 23 -8 23 C-8.33 21.35 -8.66 19.7 -9 18 C-6.03 17.67 -3.06 17.34 0 17 C-0.33 16.34 -0.66 15.68 -1 15 C-1.99 14.67 -2.98 14.34 -4 14 C-3.67 13.01 -3.34 12.02 -3 11 C-2.34 10.67 -1.68 10.34 -1 10 C-1 9.34 -1 8.68 -1 8 C-2.32 8 -3.64 8 -5 8 C-5.99 9.485 -5.99 9.485 -7 11 C-7 8.69 -7 6.38 -7 4 C-6.1028125 3.8453125 -6.1028125 3.8453125 -5.1875 3.6875 C-2.7094641 2.90868872 -1.72492247 1.8892008 0 0 Z " fill="#5E4F3C" transform="translate(426,71)"/>
<path d="M0 0 C2.0625 0.4375 2.0625 0.4375 4 1 C4.75390625 2.5859375 4.75390625 2.5859375 5 5 C3.73496991 7.36337386 2.45930719 9.43897535 0.9375 11.625 C0.09755863 12.87405989 -0.74097672 14.12406639 -1.578125 15.375 C-1.99255859 15.98859375 -2.40699219 16.6021875 -2.83398438 17.234375 C-4.90736414 20.37396513 -6.75514956 23.64419713 -8.61328125 26.9140625 C-10 29 -10 29 -12.16796875 31.0859375 C-14.34572846 32.91962163 -14.34572846 32.91962163 -14 36 C-14.33 36.99 -14.66 37.98 -15 39 C-17.475 39.495 -17.475 39.495 -20 40 C-18.5704597 35.32346366 -16.65357796 31.03240023 -14.4375 26.6875 C-13.92110962 25.66547485 -13.92110962 25.66547485 -13.39428711 24.62280273 C-10.66404651 19.24490779 -7.87470975 13.89791995 -5.0625 8.5625 C-4.67312256 7.82281982 -4.28374512 7.08313965 -3.88256836 6.32104492 C-1.12301344 1.12301344 -1.12301344 1.12301344 0 0 Z " fill="#151515" transform="translate(551,40)"/>
<path d="M0 0 C1.43279297 -0.00386719 1.43279297 -0.00386719 2.89453125 -0.0078125 C5.1875 0.125 5.1875 0.125 6.1875 1.125 C6.32865161 3.79558851 6.22997107 6.44932238 6.1875 9.125 C5.5275 9.125 4.8675 9.125 4.1875 9.125 C4.1875 6.815 4.1875 4.505 4.1875 2.125 C3.68412109 2.35687012 3.18074219 2.58874023 2.66210938 2.82763672 C0.34041996 3.89218771 -1.98594724 4.94612265 -4.3125 6 C-5.10398437 6.36480469 -5.89546875 6.72960938 -6.7109375 7.10546875 C-13.4339641 10.1363414 -19.81597857 12.45823671 -27.3125 12.25 C-28.1684375 12.23195313 -29.024375 12.21390625 -29.90625 12.1953125 C-30.5353125 12.17210937 -31.164375 12.14890625 -31.8125 12.125 C-30.8125 9.125 -30.8125 9.125 -29.05004883 8.06591797 C-28.29747803 7.75283691 -27.54490723 7.43975586 -26.76953125 7.1171875 C-25.94259766 6.77042969 -25.11566406 6.42367187 -24.26367188 6.06640625 C-22.9575293 5.53853516 -22.9575293 5.53853516 -21.625 5 C-20.77357422 4.64035156 -19.92214844 4.28070313 -19.04492188 3.91015625 C-12.61922842 1.25638958 -6.98569975 -0.01911272 0 0 Z " fill="#828C91" transform="translate(419.8125,34.875)"/>
<path d="M0 0 C1.65 0 3.3 0 5 0 C5.50710729 4.49922848 6.00440809 8.99948972 6.5 13.5 C6.64308594 14.7684375 6.78617187 16.036875 6.93359375 17.34375 C7.61782242 23.59955496 8.19071959 29.70625337 8 36 C6.35 35.67 4.7 35.34 3 35 C0.88856209 23.25384541 -0.18751491 11.93844957 0 0 Z " fill="#27424A" transform="translate(401,75)"/>
<path d="M0 0 C0.33 0 0.66 0 1 0 C1.03963867 0.87809326 1.07927734 1.75618652 1.12011719 2.66088867 C2.29199958 35.12913358 2.29199958 35.12913358 8 67 C7.34 67 6.68 67 6 67 C6 66.34 6 65.68 6 65 C3.525 65.99 3.525 65.99 1 67 C0.0240935 52.26018101 -0.12136452 37.58083006 -0.0625 22.8125 C-0.05746878 20.58658956 -0.05290877 18.36067801 -0.04882812 16.13476562 C-0.03796529 10.75648546 -0.02135898 5.37824821 0 0 Z " fill="#3E525E" transform="translate(396,48)"/>
<path d="M0 0 C0.66 0.66 1.32 1.32 2 2 C5.09926819 1.67801034 5.09926819 1.67801034 8 1 C8.76681614 8.66816143 8.76681614 8.66816143 6.88671875 11.93359375 C5.5 13.5625 5.5 13.5625 3 16 C14.36209767 15.15836314 22.06003637 10.93996363 30 3 C29.49572053 7.41244536 27.98672249 9.74974317 25 13 C22.23714883 14.84190078 21.04663589 15.34501494 17.9375 15.9375 C13.62529064 16.82530781 9.46435192 18.01027388 5.26171875 19.31640625 C3.19278645 19.94173121 1.09683508 20.47579123 -1 21 C-0.67 14.07 -0.34 7.14 0 0 Z " fill="#787878" transform="translate(432,88)"/>
<path d="M0 0 C0.33 0.99 0.66 1.98 1 3 C-13.86732771 20.52477276 -13.86732771 20.52477276 -20.68359375 21.30859375 C-23 21 -23 21 -24.8125 19.4375 C-26.39183172 16.19571384 -26.20521796 13.55711122 -26 10 C-24.35 9.34 -22.7 8.68 -21 8 C-20.06576355 11.01031744 -19.95550089 11.86650268 -21 15 C-16.20302477 12.34080445 -16.20302477 12.34080445 -11.6875 9.25 C-10 8 -10 8 -8 8 C-8 7.34 -8 6.68 -8 6 C-6.25 4.4921875 -6.25 4.4921875 -4 2.875 C-3.2575 2.33617188 -2.515 1.79734375 -1.75 1.2421875 C-0.88375 0.62730469 -0.88375 0.62730469 0 0 Z " fill="#141414" transform="translate(603,87)"/>
<path d="M0 0 C0.99 0.33 1.98 0.66 3 1 C4.43894389 7.95489549 4.43894389 7.95489549 2.6875 12.125 C-2.60110232 17.78257457 -10.4704654 22.73449387 -18.33203125 23.1953125 C-19.48058594 23.17210938 -20.62914062 23.14890625 -21.8125 23.125 C-22.97394531 23.10695313 -24.13539063 23.08890625 -25.33203125 23.0703125 C-26.21246094 23.04710938 -27.09289062 23.02390625 -28 23 C-28.33 22.34 -28.66 21.68 -29 21 C-16.21334986 16.86597025 -16.21334986 16.86597025 -12 16.5 C-8.30796584 15.88466097 -6.65983132 14.58383614 -4 12 C-2.09681116 9.14521674 -1.5380901 7.58058692 -0.875 4.3125 C-0.70742188 3.50425781 -0.53984375 2.69601563 -0.3671875 1.86328125 C-0.24601562 1.24839844 -0.12484375 0.63351563 0 0 Z " fill="#0B0B0B" transform="translate(463,86)"/>
<path d="M0 0 C0.66 0 1.32 0 2 0 C3.23920252 2.47840505 3.30731035 4.46203224 3.53515625 7.2265625 C3.62216797 8.2578125 3.70917969 9.2890625 3.79882812 10.3515625 C3.88583984 11.43179688 3.97285156 12.51203125 4.0625 13.625 C4.15337891 14.71296875 4.24425781 15.8009375 4.33789062 16.921875 C4.56225951 19.61430157 4.78280114 22.30698709 5 25 C13.62535055 17.94407413 21.32460016 10.98611518 28 2 C27.56127007 10.77459862 20.97550826 16.23810847 14.9375 21.875 C14.43114014 22.35155029 13.92478027 22.82810059 13.40307617 23.3190918 C10.46189248 25.98563104 7.8636112 27.9705724 4 29 C3.01 28.67 2.02 28.34 1 28 C1.00523682 27.36497559 1.01047363 26.72995117 1.01586914 26.07568359 C1.03676256 23.17546595 1.04969934 20.2752642 1.0625 17.375 C1.07087891 16.37597656 1.07925781 15.37695312 1.08789062 14.34765625 C1.1041087 9.44979725 1.04318537 4.81343801 0 0 Z " fill="#7A7D76" transform="translate(435,55)"/>
<path d="M0 0 C0.33851118 4.22762851 -0.50331117 6.35784134 -2.8125 9.875 C-5.31949123 13.83403107 -7.29465151 17.64188719 -9 22 C-9.66 21.34 -10.32 20.68 -11 20 C-11.99 20.66 -12.98 21.32 -14 22 C-13.65555457 14.42220048 -10.18802332 7.10134892 -5.5546875 1.140625 C-4 0 -4 0 0 0 Z " fill="#101010" transform="translate(574,73)"/>
<path d="M0 0 C0.99 0 1.98 0 3 0 C4.0478146 3.24351599 4.18227509 4.60091945 2.7421875 7.75390625 C2.12601562 8.68074219 1.50984375 9.60757813 0.875 10.5625 C0.27429688 11.49191406 -0.32640625 12.42132813 -0.9453125 13.37890625 C-3.08601984 16.10973254 -5.13311993 18.05088503 -8 20 C-11.3125 20.25 -11.3125 20.25 -14 20 C-14.33 18.68 -14.66 17.36 -15 16 C-14.29875 15.814375 -13.5975 15.62875 -12.875 15.4375 C-6.59167014 12.29583507 -3.19730919 6.02569809 0 0 Z " fill="#171717" transform="translate(492,79)"/>
<path d="M0 0 C0.66 0.66 1.32 1.32 2 2 C-0.02290642 8.66369174 -2.98286744 13.15212011 -8 18 C-10.95664519 19.4783226 -13.74229737 19.06032783 -17 19 C-16.34 18.34 -15.68 17.68 -15 17 C-15.66 16.34 -16.32 15.68 -17 15 C-15.80375 14.484375 -14.6075 13.96875 -13.375 13.4375 C-8.84082421 11.1824925 -5.81098796 8.19216544 -3 4 C-2.67 3.01 -2.34 2.02 -2 1 C-1.34 0.67 -0.68 0.34 0 0 Z " fill="#161616" transform="translate(521,79)"/>
<path d="M0 0 C1.42944945 2.35438733 2.08661261 3.48032433 1.625 6.25 C1.41875 6.8275 1.2125 7.405 1 8 C5.20233434 5.58047417 9.07927649 2.84444647 13 0 C11.81693963 4.50140044 10.83325187 8.10096508 7.625 11.5625 C4.65890952 13.18678764 3.30627528 13.7629866 0 13 C-2.71659284 10.43025001 -3.91586186 8.94655411 -4.25 5.1875 C-4.1675 4.465625 -4.085 3.74375 -4 3 C-3.01 2.67 -2.02 2.34 -1 2 C-0.67 1.34 -0.34 0.68 0 0 Z " fill="#1E1E1E" transform="translate(563,91)"/>
<path d="M0 0 C0.33 0 0.66 0 1 0 C1 2.31 1 4.62 1 7 C3.47266765 6.65555119 3.47266765 6.65555119 6 6 C6.33 5.34 6.66 4.68 7 4 C7 4.66 7 5.32 7 6 C7.7425 5.525625 8.485 5.05125 9.25 4.5625 C11.64697826 3.20058054 13.34590307 2.53081939 16 2 C16.99 1.67 17.98 1.34 19 1 C18.67 2.32 18.34 3.64 18 5 C18.99 4.67 19.98 4.34 21 4 C21 4.66 21 5.32 21 6 C20.09636719 6.33773437 19.19273437 6.67546875 18.26171875 7.0234375 C17.08222656 7.46945313 15.90273438 7.91546875 14.6875 8.375 C12.92986328 9.03628906 12.92986328 9.03628906 11.13671875 9.7109375 C7.91446407 10.91489648 7.91446407 10.91489648 5 13 C2.8125 12.625 2.8125 12.625 1 12 C-0.3271261 8.0186217 -0.06915913 4.14954773 0 0 Z " fill="#0E0D0B" transform="translate(432,78)"/>
<path d="M0 0 C1.98 0 3.96 0 6 0 C6 0.33 6 0.66 6 1 C4.35 1 2.7 1 1 1 C2.29633104 18.58892316 2.29633104 18.58892316 5 36 C6.32 36.33 7.64 36.66 9 37 C9 37.66 9 38.32 9 39 C9.66 39 10.32 39 11 39 C11 39.66 11 40.32 11 41 C8.36 41.33 5.72 41.66 3 42 C0.30851863 27.77065776 -1.82757312 14.44180063 0 0 Z " fill="#D08475" transform="translate(400,74)"/>
<path d="M0 0 C0 3.3 0 6.6 0 10 C-4.75301667 12.37650833 -6.80033049 12.33546255 -12 12 C-12.66 11.34 -13.32 10.68 -14 10 C-13.01 10 -12.02 10 -11 10 C-11 9.01 -11 8.02 -11 7 C-11.99 6.67 -12.98 6.34 -14 6 C-11.85521084 4.99770632 -9.70925278 3.99807145 -7.5625 3 C-6.36753906 2.443125 -5.17257812 1.88625 -3.94140625 1.3125 C-1 0 -1 0 0 0 Z " fill="#9A9383" transform="translate(369,32)"/>
<path d="M0 0 C-1 3 -1 3 -2.72265625 3.88671875 C-3.49480469 4.15097656 -4.26695312 4.41523438 -5.0625 4.6875 C-10.73447339 6.77458977 -15.98731809 9.47706654 -21.28930664 12.3581543 C-25.37702434 14.49366488 -28.26598784 15.44105703 -33 15 C-33.33 14.34 -33.66 13.68 -34 13 C-34.66 12.67 -35.32 12.34 -36 12 C-31.375 9.875 -31.375 9.875 -28 11 C-27.175 10.505 -26.35 10.01 -25.5 9.5 C-24.675 9.005 -23.85 8.51 -23 8 C-22.01 8.33 -21.02 8.66 -20 9 C-17.30697814 7.78973075 -17.30697814 7.78973075 -14.5 6.0625 C-9.30979499 3 -9.30979499 3 -6 3 C-6 2.01 -6 1.02 -6 0 C-3 -1 -3 -1 0 0 Z " fill="#9CA1A3" transform="translate(406,18)"/>
<path d="M0 0 C3.3895155 1.15739554 4.59844822 1.81980835 6.5625 4.875 C7.73912197 12.26751379 6.37723782 17.55684048 2.5625 23.875 C2.2325 23.875 1.9025 23.875 1.5625 23.875 C1.5625 21.54166667 1.5625 19.20833333 1.5625 16.875 C1.2325 16.215 0.9025 15.555 0.5625 14.875 C0.8925 14.215 1.2225 13.555 1.5625 12.875 C1.63246014 11.16797265 1.64690154 9.45831997 1.625 7.75 C1.61597656 6.83992188 1.60695313 5.92984375 1.59765625 4.9921875 C1.58605469 4.29351562 1.57445312 3.59484375 1.5625 2.875 C-0.7475 2.545 -3.0575 2.215 -5.4375 1.875 C-2.4375 -0.125 -2.4375 -0.125 0 0 Z " fill="#707070" transform="translate(519.4375,63.125)"/>
<path d="M0 0 C0.66 0.66 1.32 1.32 2 2 C5.09926819 1.67801034 5.09926819 1.67801034 8 1 C8.91353383 8.76503759 8.91353383 8.76503759 6.734375 11.7109375 C2.81791908 15 2.81791908 15 0 15 C0 10.05 0 5.1 0 0 Z " fill="#BD9B74" transform="translate(432,88)"/>
<path d="M0 0 C0 2 0 2 -1.390625 3.4375 C-2.00421875 3.953125 -2.6178125 4.46875 -3.25 5 C-3.85328125 5.515625 -4.4565625 6.03125 -5.078125 6.5625 C-8.87958611 9.40586929 -11.47941322 10.25054176 -16.25 10.125 C-17.14203125 10.10695313 -18.0340625 10.08890625 -18.953125 10.0703125 C-19.96632813 10.03550781 -19.96632813 10.03550781 -21 10 C-17.33293291 6.90290776 -13.58617366 4.48670401 -9.375 2.1875 C-7.68503906 1.24970703 -7.68503906 1.24970703 -5.9609375 0.29296875 C-3 -1 -3 -1 0 0 Z " fill="#7F888B" transform="translate(424,57)"/>
<path d="M0 0 C0.13494246 2.6058889 0.23402299 5.20482111 0.3125 7.8125 C0.35439453 8.55048828 0.39628906 9.28847656 0.43945312 10.04882812 C0.48828125 12.20703125 0.48828125 12.20703125 0 16 C-2.51953125 18.01171875 -2.51953125 18.01171875 -5 19 C-5.08071788 16.20775927 -5.14035408 13.41783434 -5.1875 10.625 C-5.21263672 9.8309375 -5.23777344 9.036875 -5.26367188 8.21875 C-5.29004405 6.14413852 -5.15486462 4.06899135 -5 2 C-2 0 -2 0 0 0 Z " fill="#757EA4" transform="translate(402,47)"/>
<path d="M0 0 C2.05952943 1.84647466 2.90201699 3.1341865 3.21484375 5.8984375 C3.33314342 12.9701286 3.33314342 12.9701286 2 16 C1.01 16.33 0.02 16.66 -1 17 C-0.67 15.68 -0.34 14.36 0 13 C-0.99 13 -1.98 13 -3 13 C-2.98839844 12.30132812 -2.97679687 11.60265625 -2.96484375 10.8828125 C-2.95582031 9.97273438 -2.94679688 9.06265625 -2.9375 8.125 C-2.92589844 7.22007813 -2.91429687 6.31515625 -2.90234375 5.3828125 C-2.83750743 2.9831415 -2.83750743 2.9831415 -4 1 C-7.02934491 0.34227572 -7.02934491 0.34227572 -10 0 C-10 -0.33 -10 -0.66 -10 -1 C-5.96227228 -2.15363649 -3.69751521 -2.04336367 0 0 Z " fill="#505050" transform="translate(495,66)"/>
<path d="M0 0 C0.33 0 0.66 0 1 0 C1 17.16 1 34.32 1 52 C2.32 51.34 3.64 50.68 5 50 C5.99 50.33 6.98 50.66 8 51 C2.4174808 54.32575612 -1.49686791 55.46450943 -8 55 C-8 54.67 -8 54.34 -8 54 C-5.03 53.505 -5.03 53.505 -2 53 C-1.22505609 46.19778417 -0.8122479 39.46047189 -0.68359375 32.6171875 C-0.66281265 31.67690704 -0.64203156 30.73662659 -0.62062073 29.76785278 C-0.55593568 26.80363315 -0.49662261 23.83933525 -0.4375 20.875 C-0.39423743 18.84895067 -0.35062086 16.82290887 -0.30664062 14.796875 C-0.20033913 9.86466079 -0.0988508 4.93236894 0 0 Z " fill="#58625A" transform="translate(364,59)"/>
<path d="M0 0 C0.66 0.66 1.32 1.32 2 2 C4.32275177 2.40047444 6.65739357 2.7397104 9 3 C9.33 5.64 9.66 8.28 10 11 C9.01 11.495 9.01 11.495 8 12 C8 9.36 8 6.72 8 4 C6.02 4 4.04 4 2 4 C1.67 5.32 1.34 6.64 1 8 C0.34 8 -0.32 8 -1 8 C-1.33 9.32 -1.66 10.64 -2 12 C-3.98 12.33 -5.96 12.66 -8 13 C-6.63589551 7.40717158 -3.84616474 4.08806189 0 0 Z " fill="#B38F67" transform="translate(425,64)"/>
<path d="M0 0 C0 0.33 0 0.66 0 1 C-2.31 1 -4.62 1 -7 1 C-7.226875 1.78375 -7.45375 2.5675 -7.6875 3.375 C-9 6 -9 6 -11.625 7.3125 C-12.40875 7.539375 -13.1925 7.76625 -14 8 C-14.33 7.34 -14.66 6.68 -15 6 C-18.93673644 7.31224548 -21.22719294 8.91910327 -24 12 C-26 11 -26 11 -27 9 C-18.13210634 3.27937549 -10.69915606 -0.58359033 0 0 Z " fill="#444444" transform="translate(458,42)"/>
<path d="M0 0 C1.65 0.33 3.3 0.66 5 1 C4.61859042 3.55931357 4.24044019 4.76529824 2.36328125 6.59765625 C-1.62623579 9.44731128 -5.50640974 11.97788438 -10 14 C-8.78598864 10.54473689 -7.66821041 8.47056519 -5 6 C-3.30064951 4.02590422 -1.65447294 2.01219681 0 0 Z " fill="#131313" transform="translate(564,55)"/>
<path d="M0 0 C0.33 0.99 0.66 1.98 1 3 C-0.43645851 4.60509934 -1.87420706 6.20904424 -3.3125 7.8125 C-4.11300781 8.70582031 -4.91351562 9.59914063 -5.73828125 10.51953125 C-9.64426354 14.80329421 -9.64426354 14.80329421 -11 16 C-11.66 16 -12.32 16 -13 16 C-13 15.01 -13 14.02 -13 13 C-13.66 12.67 -14.32 12.34 -15 12 C-10.25 8 -10.25 8 -8 8 C-8 7.34 -8 6.68 -8 6 C-6.25 4.4921875 -6.25 4.4921875 -4 2.875 C-3.2575 2.33617188 -2.515 1.79734375 -1.75 1.2421875 C-1.1725 0.83226563 -0.595 0.42234375 0 0 Z " fill="#272727" transform="translate(603,87)"/>
<path d="M0 0 C0.66 0 1.32 0 2 0 C2 1.32 2 2.64 2 4 C0.29457031 4.38285156 0.29457031 4.38285156 -1.4453125 4.7734375 C-6.12945951 5.94395815 -10.4504727 7.71546717 -14.875 9.625 C-22.75 13 -22.75 13 -25 13 C-25 13.99 -25 14.98 -25 16 C-25.66 16 -26.32 16 -27 16 C-27.33 15.01 -27.66 14.02 -28 13 C-6.55617978 2 -6.55617978 2 0 2 C0 1.34 0 0.68 0 0 Z " fill="#506579" transform="translate(412,32)"/>
<path d="M0 0 C0.66 1.32 1.32 2.64 2 4 C0.22970554 5.29240512 -1.54125498 6.58389793 -3.3125 7.875 C-4.29863281 8.59429687 -5.28476562 9.31359375 -6.30078125 10.0546875 C-8.17523115 11.4055935 -10.07752993 12.71835329 -12 14 C-12 13.34 -12 12.68 -12 12 C-12.99 11.67 -13.98 11.34 -15 11 C-14.25 9.0625 -14.25 9.0625 -13 7 C-10.50529228 6.03430669 -8.70254461 6 -6 6 C-5.34 5.01 -4.68 4.02 -4 3 C-2.68 3 -1.36 3 0 3 C0 2.01 0 1.02 0 0 Z " fill="#141210" transform="translate(442,46)"/>
<path d="M0 0 C1.67110042 2.96178773 2.32682752 5.37071192 2.625 8.75 C2.69976562 9.54921875 2.77453125 10.3484375 2.8515625 11.171875 C2.90054687 11.77515625 2.94953125 12.3784375 3 13 C4.51056694 12.10085301 6.00825429 11.18003899 7.5 10.25 C8.3353125 9.73953125 9.170625 9.2290625 10.03125 8.703125 C11.00578125 7.86007813 11.00578125 7.86007813 12 7 C12 5.68 12 4.36 12 3 C11.34 3 10.68 3 10 3 C10.33 2.01 10.66 1.02 11 0 C11.99 0.33 12.98 0.66 14 1 C14 2.65 14 4.3 14 6 C16.97 6.495 16.97 6.495 20 7 C20 7.33 20 7.66 20 8 C19.030625 8.04125 18.06125 8.0825 17.0625 8.125 C12.61876564 8.7108879 9.70163575 11.04477402 6.2109375 13.72265625 C3.6052408 15.2280676 1.96087212 15.24414209 -1 15 C-0.34 14.67 0.32 14.34 1 14 C0.835 13.175 0.67 12.35 0.5 11.5 C-0.05896045 7.58727683 -0.06807187 3.94816827 0 0 Z " fill="#7F776A" transform="translate(412,103)"/>
<path d="M0 0 C0.33 0.66 0.66 1.32 1 2 C-4.72458595 8.3167845 -11.9177041 14.14484112 -20 17 C-20 15.68 -20 14.36 -20 13 C-18.74316406 12.41798828 -18.74316406 12.41798828 -17.4609375 11.82421875 C-13.5817307 9.77953525 -10.15622782 7.39641514 -6.625 4.8125 C-5.66400391 4.11737305 -5.66400391 4.11737305 -4.68359375 3.40820312 C-3.1195663 2.276034 -1.55938034 1.13856126 0 0 Z " fill="#A2A2A2" transform="translate(559,59)"/>
<path d="M0 0 C0.66 0.66 1.32 1.32 2 2 C1.505 3.11375 1.01 4.2275 0.5 5.375 C-1.36706789 10.26619193 -1.28600529 14.8307192 -1 20 C-4.8359375 18.2421875 -4.8359375 18.2421875 -6.3125 16.0625 C-7 14 -7 14 -6 11 C-5.34 10.34 -4.68 9.68 -4 9 C-3.24785002 7.4792296 -2.54332588 5.93442705 -1.875 4.375 C-1.34519531 3.14910156 -1.34519531 3.14910156 -0.8046875 1.8984375 C-0.53914062 1.27195312 -0.27359375 0.64546875 0 0 Z " fill="#191919" transform="translate(530,87)"/>
<path d="M0 0 C0.33010215 2.91690261 0.61495514 5.82673707 0.875 8.75 C0.97296875 9.575 1.0709375 10.4 1.171875 11.25 C1.36446812 13.63815472 1.46796531 15.64764881 1 18 C-1.9921875 20.578125 -1.9921875 20.578125 -5 22 C-5.66 21.67 -6.32 21.34 -7 21 C-6.03320312 20.51080078 -6.03320312 20.51080078 -5.046875 20.01171875 C-2.0194232 17.03626517 -2.32723101 13.83202323 -2.25 9.8125 C-2.22035156 9.06291016 -2.19070313 8.31332031 -2.16015625 7.54101562 C-2.0895921 5.69458693 -2.04251524 3.84728739 -2 2 C-3.65 2.66 -5.3 3.32 -7 4 C-7.33 3.34 -7.66 2.68 -8 2 C-4.91190305 0.23537317 -3.76687864 0 0 0 Z " fill="#646774" transform="translate(404,45)"/>
<path d="M0 0 C1.66666667 0 3.33333333 0 5 0 C5 4.62 5 9.24 5 14 C3.68 14 2.36 14 1 14 C0.67 9.38 0.34 4.76 0 0 Z " fill="#5F7177" transform="translate(372,42)"/>
<path d="M0 0 C0.33 0 0.66 0 1 0 C1.05429959 1.74965358 1.09292823 3.49979787 1.125 5.25 C1.14820313 6.22453125 1.17140625 7.1990625 1.1953125 8.203125 C0.99862781 11.0196498 0.44568916 12.60949036 -1 15 C-1.99 14.67 -2.98 14.34 -4 14 C-3.67 13.01 -3.34 12.02 -3 11 C-2.34 10.67 -1.68 10.34 -1 10 C-1 9.34 -1 8.68 -1 8 C-2.32 8 -3.64 8 -5 8 C-5.66 8.99 -6.32 9.98 -7 11 C-7 8.69 -7 6.38 -7 4 C-6.401875 3.896875 -5.80375 3.79375 -5.1875 3.6875 C-2.7094641 2.90868872 -1.72492247 1.8892008 0 0 Z " fill="#6A6756" transform="translate(426,71)"/>
<path d="M0 0 C7.07459475 0.08510791 7.07459475 0.08510791 10.28515625 2.53125 C10.96578125 3.52125 10.96578125 3.52125 11.66015625 4.53125 C8.56219655 6.08022985 5.39799073 5.36364539 2.03515625 5.09375 C1.32875 5.04154297 0.62234375 4.98933594 -0.10546875 4.93554688 C-1.85064362 4.80583793 -3.595301 4.66920046 -5.33984375 4.53125 C-3.01149219 0.68374447 -3.01149219 0.68374447 0 0 Z " fill="#131313" transform="translate(453.33984375,42.46875)"/>
<path d="M0 0 C0 2.64 0 5.28 0 8 C-0.66 8 -1.32 8 -2 8 C-2 5.69 -2 3.38 -2 1 C-2.52956299 1.24758057 -3.05912598 1.49516113 -3.60473633 1.75024414 C-6.00275689 2.86448388 -8.40741059 3.96360712 -10.8125 5.0625 C-11.64587891 5.45244141 -12.47925781 5.84238281 -13.33789062 6.24414062 C-14.14033203 6.60830078 -14.94277344 6.97246094 -15.76953125 7.34765625 C-16.50792236 7.68804932 -17.24631348 8.02844238 -18.00708008 8.37915039 C-20 9 -20 9 -23 8 C-19.92595107 6.45984969 -16.83950288 4.94637913 -13.75 3.4375 C-12.87730469 2.99986328 -12.00460937 2.56222656 -11.10546875 2.11132812 C-10.26113281 1.70205078 -9.41679687 1.29277344 -8.546875 0.87109375 C-7.38430176 0.29766235 -7.38430176 0.29766235 -6.19824219 -0.28735352 C-3.68400855 -1.10244103 -2.45320685 -0.88207936 0 0 Z " fill="#93807E" transform="translate(426,36)"/>
<path d="M0 0 C-0.51035831 4.3890815 -1.52214277 7.33708062 -4 11 C-5.65 10.67 -7.3 10.34 -9 10 C-8.42110619 6.71245489 -7.45171589 5.06327505 -5.0625 2.75 C-4.53785156 2.22921875 -4.01320313 1.7084375 -3.47265625 1.171875 C-2 0 -2 0 0 0 Z " fill="#1E1E1E" transform="translate(603,60)"/>
<path d="M0 0 C1.51953125 1.14453125 1.51953125 1.14453125 3 3 C3.07421875 5.69921875 3.07421875 5.69921875 2.6875 8.6875 C2.50767578 10.17830078 2.50767578 10.17830078 2.32421875 11.69921875 C2.21722656 12.45847656 2.11023438 13.21773437 2 14 C1.34 14 0.68 14 0 14 C-1.99475484 9.88581814 -2.34358086 6.55244646 -2 2 C-1.34 1.34 -0.68 0.68 0 0 Z " fill="#D6CECC" transform="translate(355,92)"/>
<path d="M0 0 C0 0.99 0 1.98 0 3 C-0.99 3.495 -0.99 3.495 -2 4 C-2 5.98 -2 7.96 -2 10 C-2.66 9.01 -3.32 8.02 -4 7 C-4.33 12.28 -4.66 17.56 -5 23 C-5.33 23 -5.66 23 -6 23 C-6 15.74 -6 8.48 -6 1 C-4 0 -4 0 0 0 Z " fill="#5E6864" transform="translate(377,79)"/>
<path d="M0 0 C-0.77013292 8.00938233 -0.77013292 8.00938233 -4 11 C-5.32 11 -6.64 11 -8 11 C-7.72253472 6.28309024 -5.62886998 4.24197448 -2.375 1.13671875 C-1 0 -1 0 0 0 Z " fill="#131313" transform="translate(583,55)"/>
<path d="M0 0 C8.19256018 1.17286652 8.19256018 1.17286652 11.5625 4.625 C12.2740625 5.800625 12.2740625 5.800625 13 7 C12.34 8.32 11.68 9.64 11 11 C10.67 9.35 10.34 7.7 10 6 C8.741875 5.855625 7.48375 5.71125 6.1875 5.5625 C3.57332877 5.26251314 1.52560108 4.84186703 -1 4 C-0.67 2.68 -0.34 1.36 0 0 Z " fill="#3E3E3E" transform="translate(451,79)"/>
<path d="M0 0 C0.99 0.33 1.98 0.66 3 1 C-4.187913 4.82626548 -9.82384493 6.79810624 -18 6 C-18 5.34 -18 4.68 -18 4 C-17.278125 4.061875 -16.55625 4.12375 -15.8125 4.1875 C-12.90199628 4.21130249 -12.90199628 4.21130249 -10.4375 2.4375 C-8 1 -8 1 -5.9375 1.4375 C-5.298125 1.623125 -4.65875 1.80875 -4 2 C-2.65863633 1.34964186 -1.32467746 0.6837045 0 0 Z " fill="#ACADAE" transform="translate(406,41)"/>
<path d="M0 0 C1.98 0.99 1.98 0.99 4 2 C4.15620438 11.37226277 4.15620438 11.37226277 3 14 C2.01 14.33 1.02 14.66 0 15 C0 10.05 0 5.1 0 0 Z " fill="#919191" transform="translate(494,68)"/>
<path d="M0 0 C-5.22468764 4.39973696 -9.30713088 4.47617251 -16 4 C-12.17701614 0.17701614 -9.16843358 -0.55810592 -3.98828125 -1.01953125 C-2 -1 -2 -1 0 0 Z " fill="#A7A9AA" transform="translate(419,63)"/>
<path d="M0 0 C0.66796875 1.7109375 0.66796875 1.7109375 1 4 C-0.07421875 6.2890625 -0.07421875 6.2890625 -1.6875 8.625 C-2.20699219 9.40101562 -2.72648437 10.17703125 -3.26171875 10.9765625 C-5.10388267 13.1209241 -6.41939526 13.92433684 -9 15 C-10.11375 15.556875 -10.11375 15.556875 -11.25 16.125 C-11.8275 16.41375 -12.405 16.7025 -13 17 C-12.62488281 16.56429687 -12.24976563 16.12859375 -11.86328125 15.6796875 C-10.79380632 14.43510962 -9.72620993 13.18891588 -8.66015625 11.94140625 C-7.63048465 10.73729616 -6.59729175 9.53617613 -5.55859375 8.33984375 C-3.29280574 5.69529715 -1.3620936 3.21949396 0 0 Z " fill="#747474" transform="translate(462,57)"/>
<path d="M0 0 C0 1.32 0 2.64 0 4 C-5.75 6 -5.75 6 -8 6 C-8.33 4.35 -8.66 2.7 -9 1 C-5.92677456 0.08941469 -3.19902639 -0.08886184 0 0 Z " fill="#7E755D" transform="translate(426,88)"/>
<path d="M0 0 C1.2065625 0.0309375 1.2065625 0.0309375 2.4375 0.0625 C2.5625 2.4375 2.5625 2.4375 2.4375 5.0625 C1.7775 5.7225 1.1175 6.3825 0.4375 7.0625 C-1.6875 6.6875 -1.6875 6.6875 -3.5625 6.0625 C-3.605221 4.39638095 -3.60313832 2.72867115 -3.5625 1.0625 C-2.5625 0.0625 -2.5625 0.0625 0 0 Z " fill="#CEA16F" transform="translate(390.5625,53.9375)"/>
<path d="M0 0 C0.33 0 0.66 0 1 0 C1.33808686 2.06172613 1.67027361 4.1244203 2 6.1875 C2.185625 7.33605469 2.37125 8.48460938 2.5625 9.66796875 C2.93489477 12.50415393 3.08596021 15.14719564 3 18 C2.01 18.33 1.02 18.66 0 19 C0 12.73 0 6.46 0 0 Z " fill="#727CA1" transform="translate(398,94)"/>
<path d="M0 0 C0.66 0 1.32 0 2 0 C2.33 3.3 2.66 6.6 3 10 C1.35 10 -0.3 10 -2 10 C-1.85950482 8.52031676 -1.71245174 7.04125484 -1.5625 5.5625 C-1.48128906 4.73878906 -1.40007812 3.91507812 -1.31640625 3.06640625 C-1 1 -1 1 0 0 Z " fill="#B5ADA3" transform="translate(356,76)"/>
<path d="M0 0 C0.99 0.66 1.98 1.32 3 2 C-0.92074329 4.61382886 -4.44511017 4.29386386 -9 4 C-9.66 3.34 -10.32 2.68 -11 2 C-7.3586453 -0.33046701 -4.2475253 -0.30891093 0 0 Z " fill="#A9ABAC" transform="translate(366,40)"/>
<path d="M0 0 C0 3 0 3 -2.265625 5.4453125 C-3.25260679 6.34716379 -4.24779262 7.24009934 -5.25 8.125 C-6.22453125 9.01445313 -7.1990625 9.90390625 -8.203125 10.8203125 C-10.66960344 12.74251217 -11.9620097 13.63833449 -15 14 C-14.21625 13.2575 -13.4325 12.515 -12.625 11.75 C-9.9866414 9.28628885 -9.9866414 9.28628885 -9 6.8125 C-7.57057356 4.22166458 -5.7167277 3.99392477 -3 3 C-1.22722741 1.47992158 -1.22722741 1.47992158 0 0 Z " fill="#B8B8B8" transform="translate(455,69)"/>
<path d="M0 0 C2.375 0.6875 2.375 0.6875 3.375 1.6875 C3.52667148 3.64172866 3.59679996 5.60259729 3.625 7.5625 C3.66367187 9.16738281 3.66367187 9.16738281 3.703125 10.8046875 C3.375 13.6875 3.375 13.6875 1.859375 15.5703125 C1.36953125 15.93898438 0.8796875 16.30765625 0.375 16.6875 C0.53871094 16.13578125 0.70242188 15.5840625 0.87109375 15.015625 C1.43260414 12.42135993 1.47239008 10.08914589 1.4375 7.4375 C1.42847656 6.54546875 1.41945313 5.6534375 1.41015625 4.734375 C1.39855469 4.05890625 1.38695312 3.3834375 1.375 2.6875 C-0.935 2.3575 -3.245 2.0275 -5.625 1.6875 C-2.625 -0.3125 -2.625 -0.3125 0 0 Z " fill="#4A4A4A" transform="translate(519.625,63.3125)"/>
<path d="M0 0 C0.66 0.33 1.32 0.66 2 1 C2.05406122 2.93719378 2.09282025 4.87481921 2.125 6.8125 C2.14820313 7.89144531 2.17140625 8.97039062 2.1953125 10.08203125 C2 13 2 13 0 16 C-0.9360342 12.20732808 -0.98276252 9.06325435 -0.5625 5.1875 C-0.40974609 3.72376953 -0.40974609 3.72376953 -0.25390625 2.23046875 C-0.12822266 1.12638672 -0.12822266 1.12638672 0 0 Z " fill="#546278" transform="translate(397,81)"/>
<path d="M0 0 C0.66 0.66 1.32 1.32 2 2 C1.525625 2.9075 1.05125 3.815 0.5625 4.75 C-0.64628821 7.26427949 -1.47993886 9.29568209 -2 12 C-2.66 11.67 -3.32 11.34 -4 11 C-4.33 11.66 -4.66 12.32 -5 13 C-5.33 12.34 -5.66 11.68 -6 11 C-4.78515625 8.3984375 -4.78515625 8.3984375 -3.0625 5.375 C-2.21365234 3.87066406 -2.21365234 3.87066406 -1.34765625 2.3359375 C-0.90292969 1.56507812 -0.45820312 0.79421875 0 0 Z " fill="#A3A3A3" transform="translate(533,70)"/>
<path d="M0 0 C-3.7559214 3.42931954 -8.23466745 4.56429083 -13 6 C-12.1953125 2.15625 -12.1953125 2.15625 -10.4375 0.75 C-6.89085382 -0.34127575 -3.70471601 -0.12349053 0 0 Z " fill="#99A1A3" transform="translate(422,35)"/>
<path d="M0 0 C0 0.99 0 1.98 0 3 C-0.99 3 -1.98 3 -3 3 C-3.33 3.66 -3.66 4.32 -4 5 C-7.0625 5.625 -7.0625 5.625 -10 6 C-10 5.01 -10 4.02 -10 3 C-6.27034861 0.96564469 -4.33094958 0 0 0 Z " fill="#546C73" transform="translate(403,15)"/>
<path d="M0 0 C1.98 0 3.96 0 6 0 C6 0.33 6 0.66 6 1 C4.35 1 2.7 1 1 1 C1.33 6.28 1.66 11.56 2 17 C1.01 17 0.02 17 -1 17 C-0.67 11.39 -0.34 5.78 0 0 Z " fill="#A4736A" transform="translate(400,74)"/>
<path d="M0 0 C0 0.66 0 1.32 0 2 C-6.4 6.06153846 -6.4 6.06153846 -9.4375 5.75 C-9.953125 5.5025 -10.46875 5.255 -11 5 C-7.56138316 1.21752148 -5.17193751 0 0 0 Z " fill="#435E65" transform="translate(385,24)"/>
<path d="M0 0 C1.32 0.33 2.64 0.66 4 1 C4.33 2.32 4.66 3.64 5 5 C4.01 5 3.02 5 2 5 C2 4.34 2 3.68 2 3 C-2.95 3 -7.9 3 -13 3 C-13 2.67 -13 2.34 -13 2 C-6.565 1.505 -6.565 1.505 0 1 C0 0.67 0 0.34 0 0 Z " fill="#2F2F2F" transform="translate(554,86)"/>
<path d="M0 0 C0.66 0.66 1.32 1.32 2 2 C1.875 5.5 1.875 5.5 1 9 C-1.0625 10.4375 -1.0625 10.4375 -3 11 C-3.75 9.4375 -3.75 9.4375 -4 7 C-2.86915563 4.49713591 -1.47860484 2.32992278 0 0 Z " fill="#4F4F4F" transform="translate(539,68)"/>
<path d="M0 0 C0.66 0.33 1.32 0.66 2 1 C0.71034824 2.37562854 -0.62689293 3.70766393 -2 5 C-2.66 5 -3.32 5 -4 5 C-4 5.66 -4 6.32 -4 7 C-2.68 7.33 -1.36 7.66 0 8 C-3.75 10 -3.75 10 -6 10 C-6 7.36 -6 4.72 -6 2 C-5.67 2.66 -5.34 3.32 -5 4 C-3.35 2.68 -1.7 1.36 0 0 Z " fill="#6D6B63" transform="translate(437,99)"/>
<path d="M0 0 C1.21346851 3.64040554 1.21346851 5.35959446 0 9 C-1.65 9.33 -3.3 9.66 -5 10 C-3.84414715 6.08788267 -2.64465038 3.1254959 0 0 Z " fill="#0C0C0C" transform="translate(536,70)"/>
<path d="M0 0 C-5.14285714 5.57142857 -5.14285714 5.57142857 -9 6 C-9 4.68 -9 3.36 -9 2 C-3.375 -1.125 -3.375 -1.125 0 0 Z " fill="#8F8F8F" transform="translate(548,70)"/>
<path d="M0 0 C-0.11347619 1.97986082 -0.2410935 3.95891598 -0.375 5.9375 C-0.47941406 7.59072266 -0.47941406 7.59072266 -0.5859375 9.27734375 C-0.72257812 10.17582031 -0.85921875 11.07429688 -1 12 C-1.99 12.495 -1.99 12.495 -3 13 C-3 9.04 -3 5.08 -3 1 C-1 0 -1 0 0 0 Z " fill="#4E4E4E" transform="translate(475,82)"/>
<path d="M0 0 C1.32 0.33 2.64 0.66 4 1 C3.45730469 1.47050781 2.91460938 1.94101563 2.35546875 2.42578125 C1.28232422 3.35970703 1.28232422 3.35970703 0.1875 4.3125 C-0.52019531 4.92738281 -1.22789062 5.54226562 -1.95703125 6.17578125 C-3.70136739 7.73334335 -5.36778041 9.32658875 -7 11 C-7.66 10.67 -8.32 10.34 -9 10 C-6.03 6.7 -3.06 3.4 0 0 Z " fill="#444444" transform="translate(588,77)"/>
<path d="M0 0 C0.66 0 1.32 0 2 0 C2.33 2.64 2.66 5.28 3 8 C1.68 8 0.36 8 -1 8 C-1.125 2.25 -1.125 2.25 0 0 Z " fill="#7D898D" transform="translate(374,48)"/>
<path d="M0 0 C0 0.99 0 1.98 0 3 C-1.98 3 -3.96 3 -6 3 C-6.66 4.98 -7.32 6.96 -8 9 C-8.89674777 6.48910624 -9.13172674 5.35464891 -8.1875 2.8125 C-6.01558386 -0.5025299 -3.68969181 -0.09709715 0 0 Z " fill="#89887B" transform="translate(358,39)"/>
<path d="M0 0 C1.65 0.33 3.3 0.66 5 1 C5 1.66 5 2.32 5 3 C5.66 3 6.32 3 7 3 C7 3.66 7 4.32 7 5 C4.36 5.33 1.72 5.66 -1 6 C-0.67 4.02 -0.34 2.04 0 0 Z " fill="#A1756D" transform="translate(404,110)"/>
<path d="M0 0 C0.66 0.99 1.32 1.98 2 3 C1.67 3.99 1.34 4.98 1 6 C1.66 6.33 2.32 6.66 3 7 C2.34 7 1.68 7 1 7 C1 8.65 1 10.3 1 12 C0.34 11.67 -0.32 11.34 -1 11 C-1.0270043 9.54176788 -1.04639787 8.08339325 -1.0625 6.625 C-1.07410156 5.81289062 -1.08570313 5.00078125 -1.09765625 4.1640625 C-1 2 -1 2 0 0 Z " fill="#1F4049" transform="translate(372,69)"/>
<path d="M0 0 C0.33 0.99 0.66 1.98 1 3 C0.34 3.66 -0.32 4.32 -1 5 C-1.99 5 -2.98 5 -4 5 C-4.66 6.32 -5.32 7.64 -6 9 C-6.66 8.34 -7.32 7.68 -8 7 C-5.36 4.69 -2.72 2.38 0 0 Z " fill="#353535" transform="translate(453,73)"/>
<path d="M0 0 C0.33 0.66 0.66 1.32 1 2 C1.66 2.33 2.32 2.66 3 3 C2.67 5.31 2.34 7.62 2 10 C1.34 10 0.68 10 0 10 C0 6.7 0 3.4 0 0 Z " fill="#7F8A8D" transform="translate(373,61)"/>
<path d="M0 0 C0.33 0 0.66 0 1 0 C1 3.63 1 7.26 1 11 C1.66 11.33 2.32 11.66 3 12 C2.01 12.66 1.02 13.32 0 14 C-0.66 12.68 -1.32 11.36 -2 10 C-1.34 10 -0.68 10 0 10 C0 6.7 0 3.4 0 0 Z " fill="#686263" transform="translate(424,44)"/>
<path d="M0 0 C3.26954202 0.56371414 4.82575883 1.49962266 7 4 C4.47946405 5.26026798 3.1457902 4.91874445 0.375 4.5625 C-0.85089844 4.40974609 -0.85089844 4.40974609 -2.1015625 4.25390625 C-3.04128906 4.12822266 -3.04128906 4.12822266 -4 4 C-4 3.67 -4 3.34 -4 3 C-2.35 2.67 -0.7 2.34 1 2 C0.67 1.34 0.34 0.68 0 0 Z " fill="#515151" transform="translate(458,43)"/>
<path d="M0 0 C-0.33 0.99 -0.66 1.98 -1 3 C-4.0625 4.1875 -4.0625 4.1875 -7 5 C-6.67 3.68 -6.34 2.36 -6 1 C-6.66 0.67 -7.32 0.34 -8 0 C-5.13822943 -1.43088528 -3.06624227 -0.59991697 0 0 Z " fill="#7D8B8F" transform="translate(391,23)"/>
<path d="M0 0 C-0.75 2.4375 -0.75 2.4375 -2 5 C-4.125 5.8125 -4.125 5.8125 -6 6 C-6.33 5.01 -6.66 4.02 -7 3 C-2.25 0 -2.25 0 0 0 Z " fill="#505050" transform="translate(438,48)"/>
<path d="M0 0 C-1.1858237 3.37503669 -2.27573689 5.64722731 -5 8 C-5.1875 5.125 -5.1875 5.125 -5 2 C-2 0 -2 0 0 0 Z " fill="#B9966D" transform="translate(416,65)"/>
<path d="M0 0 C0.99 0.33 1.98 0.66 3 1 C2.67 1.99 2.34 2.98 2 4 C-0.5625 5.1875 -0.5625 5.1875 -3 6 C-2.42655063 3.13275314 -2.1385485 2.1385485 0 0 Z " fill="#2C2D2D" transform="translate(430,52)"/>
<path d="M0 0 C-0.33 0.66 -0.66 1.32 -1 2 C-3.31 2 -5.62 2 -8 2 C-8.33 1.34 -8.66 0.68 -9 0 C-5.52176885 -1.15941038 -3.54104422 -0.70820884 0 0 Z " fill="#040404" transform="translate(443,107)"/>
<path d="M0 0 C1.32 0.33 2.64 0.66 4 1 C4 1.66 4 2.32 4 3 C0.49223216 4.60355101 -2.14354879 5.22036864 -6 5 C-5.67 4.34 -5.34 3.68 -5 3 C-3.66666667 2.66666667 -2.33333333 2.33333333 -1 2 C-0.67 1.34 -0.34 0.68 0 0 Z " fill="#CFB59C" transform="translate(422,97)"/>
<path d="M0 0 C0.66 0 1.32 0 2 0 C2.93423645 3.01031744 3.04449911 3.86650268 2 7 C2.66 7.33 3.32 7.66 4 8 C3.01 8 2.02 8 1 8 C-0.42944945 5.64561267 -1.08661261 4.51967567 -0.625 1.75 C-0.41875 1.1725 -0.2125 0.595 0 0 Z " fill="#454545" transform="translate(580,95)"/>
<path d="M0 0 C-0.33 0.99 -0.66 1.98 -1 3 C-1.66 3 -2.32 3 -3 3 C-3.33 3.66 -3.66 4.32 -4 5 C-4.99 4.67 -5.98 4.34 -7 4 C-7 3.34 -7 2.68 -7 2 C-4 0 -4 0 0 0 Z " fill="#CDB091" transform="translate(433,62)"/>
<path d="M0 0 C0.33 0 0.66 0 1 0 C1 1.98 1 3.96 1 6 C-1.31 6 -3.62 6 -6 6 C-4 4 -2 2 0 0 Z " fill="#808A8C" transform="translate(368,35)"/>
<path d="M0 0 C2.475 0.495 2.475 0.495 5 1 C5.33 1.99 5.66 2.98 6 4 C4.35 4.33 2.7 4.66 1 5 C0.67 3.35 0.34 1.7 0 0 Z " fill="#917F62" transform="translate(417,89)"/>
<path d="M0 0 C0.66 0.33 1.32 0.66 2 1 C1 4 1 4 -1.0625 5.1875 C-1.701875 5.455625 -2.34125 5.72375 -3 6 C-3.66 5.34 -4.32 4.68 -5 4 C-3.35 2.68 -1.7 1.36 0 0 Z " fill="#1E1E1E" transform="translate(553,66)"/>
<path d="M0 0 C0.99 0.33 1.98 0.66 3 1 C3 1.66 3 2.32 3 3 C1 4.625 1 4.625 -1 6 C-1.66 5.34 -2.32 4.68 -3 4 C-2.67 3.01 -2.34 2.02 -2 1 C-1.34 0.67 -0.68 0.34 0 0 Z " fill="#737C7F" transform="translate(421,56)"/>
<path d="M0 0 C-2.39509338 2.89932357 -4.31245243 3.50168276 -8 4 C-7 1 -7 1 -4.5625 -0.25 C-2 -1 -2 -1 0 0 Z " fill="#8F9699" transform="translate(407,40)"/>
<path d="M0 0 C0.66 0.66 1.32 1.32 2 2 C1.34 3.65 0.68 5.3 0 7 C-0.66 7 -1.32 7 -2 7 C-2.33 7.66 -2.66 8.32 -3 9 C-2.44271087 5.65626525 -1.64826111 2.96687001 0 0 Z " fill="#525252" transform="translate(530,87)"/>
<path d="M0 0 C0 0.66 0 1.32 0 2 C-2.875 2.125 -2.875 2.125 -6 2 C-6.66 1.34 -7.32 0.68 -8 0 C-4.71023192 -1.09658936 -3.28696233 -0.79953138 0 0 Z " fill="#D5CDCC" transform="translate(363,42)"/>
</svg>
